#N canvas 1055 14 843 976 12;
#X declare -lib mrpeach;
#X obj 132 62 adc~;
#X obj 40 248 env~;
#X obj 43 295 - 100;
#X obj 40 387 vu 15 120 empty empty -1 -8 0 10 -66577 -1 1 0;
#X msg 484 799 disconnect;
#X obj 1066 255 print;
#X obj 1020 183 unpackOSC;
#X obj 247 347 packOSC;
#X obj 335 725 udpsend;
#X msg 516 700 connect 192.100.0.2 9001;
#X obj 135 153 *~;
#X obj 145 201 bp~;
#X obj 562 167 *~;
#X obj 139 251 env~;
#X obj 142 298 - 100;
#X obj 139 390 vu 15 120 empty empty -1 -8 0 10 -66577 -1 1 0;
#X floatatom 193 159 5 0 0 0 - - -;
#X floatatom 203 198 5 0 0 0 - - -;
#X floatatom 163 112 5 1 10 0 - - -;
#X floatatom 247 273 5 0 0 0 - - -;
#X obj 1007 129 udpreceive 9001;
#X obj 182 18 import mrpeach;
#X text 243 158 freq centrale;
#X text 250 195 largeur de bande;
#X msg 247 311 send /sound/snare \$1;
#X floatatom 599 185 5 0 0 0 - - -;
#X obj 667 559 packOSC;
#X obj 560 304 env~;
#X obj 563 351 - 100;
#X obj 560 443 vu 15 120 empty empty -1 -8 0 10 -66577 -1 1 0;
#X floatatom 668 326 5 0 0 0 - - -;
#X floatatom 605 129 5 1 500 0 - - -;
#X msg 667 523 send /sound/bass \$1;
#X obj 245 243 dbtorms;
#X obj 675 428 dbtorms;
#X floatatom 654 211 5 0 0 0 - - -;
#X obj 563 246 bp~;
#X floatatom 684 373 5 0 0 0 - - -;
#X obj 685 476 spigot;
#X floatatom 762 477 5 0 0 0 - - -;
#X obj 750 383 == 0;
#X msg 792 409 0;
#X obj 769 340 > 0;
#X connect 0 0 1 0;
#X connect 0 0 10 0;
#X connect 0 1 12 0;
#X connect 1 0 2 0;
#X connect 2 0 3 0;
#X connect 4 0 8 0;
#X connect 6 0 5 0;
#X connect 7 0 8 0;
#X connect 9 0 8 0;
#X connect 10 0 11 0;
#X connect 11 0 13 0;
#X connect 12 0 36 0;
#X connect 13 0 14 0;
#X connect 13 0 33 0;
#X connect 14 0 15 0;
#X connect 16 0 11 1;
#X connect 17 0 11 2;
#X connect 18 0 10 1;
#X connect 19 0 24 0;
#X connect 20 0 6 0;
#X connect 24 0 7 0;
#X connect 25 0 36 1;
#X connect 26 0 8 0;
#X connect 27 0 28 0;
#X connect 27 0 34 0;
#X connect 28 0 29 0;
#X connect 28 0 30 0;
#X connect 30 0 42 0;
#X connect 31 0 12 1;
#X connect 32 0 26 0;
#X connect 33 0 19 0;
#X connect 34 0 38 0;
#X connect 35 0 36 2;
#X connect 36 0 27 0;
#X connect 37 0 38 1;
#X connect 37 0 40 0;
#X connect 38 0 39 0;
#X connect 39 0 32 0;
#X connect 40 0 41 0;
#X connect 41 0 39 0;
#X connect 42 0 37 0;
